<svg xmlns="http://www.w3.org/2000/svg" viewBox="0 9.640000343322754 251.66000366210938 36.040000915527344" data-asc="0.91357421875" width="251.66000366210938" height="36.040000915527344"><defs/><g fill="#0078ff"><g transform="translate(0, 0)"><path d="M11.72 45.68L0 13.28L11.01 13.28L22.22 45.68L11.72 45.68M23.54 44.70L18.68 30.44L23.90 13.28L34.74 13.28L23.54 44.70ZM36.96 45.68L36.96 13.28L47.75 13.28L47.75 26.12L58.08 26.12L58.08 32.37L47.75 32.37L47.75 45.68L36.96 45.68M56.18 22.66L56.18 19.56L49.46 19.56L49.46 13.28L66.33 13.28L66.33 22.66L56.18 22.66M49.46 45.68L49.46 39.21L55.54 39.21L55.54 35.96L66.33 35.96L66.33 45.68L49.46 45.68ZM77.25 45.68L71.19 39.62L71.19 9.86L81.98 9.86L81.98 39.21L86.82 39.21L86.82 45.68L77.25 45.68ZM95.83 45.68L89.36 39.21L89.36 26.22L95.83 19.75L100.15 19.75L100.15 45.68L95.83 45.68M101.86 35.28L101.86 30.76L107.54 30.76L107.54 26.22L101.86 26.22L101.86 19.75L111.01 19.75L117.48 26.22L117.48 35.28L101.86 35.28M101.86 45.68L101.86 39.62L116.36 39.62L116.36 42.43L113.13 45.68L101.86 45.68ZM128.32 45.68L121.85 39.21L121.85 26.22L128.32 19.75L132.64 19.75L132.64 45.68L128.32 45.68M139.14 30.10L139.14 26.22L134.35 26.22L134.35 19.75L143.46 19.75L149.93 26.22L149.93 30.10L139.14 30.10M134.35 45.68L134.35 39.62L139.14 39.62L139.14 36.38L149.93 36.38L149.93 39.21L143.46 45.68L134.35 45.68ZM161.40 45.68L154.91 39.21L154.91 26.22L152.76 26.22L152.76 19.75L154.91 19.75L154.91 16.94L165.70 13.28L165.70 39.21L172.83 39.21L172.83 45.68L161.40 45.68M167.41 26.22L167.41 19.75L173.22 19.75L173.22 26.22L167.41 26.22ZM177.10 45.68L177.10 19.75L187.89 19.75L187.89 45.68L177.10 45.68M194.21 32.52L194.21 26.22L189.62 26.22L189.62 23.39L193.24 19.75L199.78 19.75L205.03 25.81L205.03 32.52L194.21 32.52ZM207.89 16.53L207.89 9.64L218.70 9.64L218.70 16.53L207.89 16.53M207.89 45.68L207.89 19.75L218.70 19.75L218.70 45.68L207.89 45.68ZM230.05 45.68L223.58 39.21L223.58 26.22L230.05 19.75L234.38 19.75L234.38 45.68L230.05 45.68M240.87 30.10L240.87 26.22L236.08 26.22L236.08 19.75L245.19 19.75L251.66 26.22L251.66 30.10L240.87 30.10M236.08 45.68L236.08 39.62L240.87 39.62L240.87 36.38L251.66 36.38L251.66 39.21L245.19 45.68L236.08 45.68Z"/></g></g></svg>